<svg xmlns="http://www.w3.org/2000/svg" viewBox="0 0 96 96" fill="none">
  <rect width="96" height="96" rx="24" fill="#0F766E"/>
  <path d="M48 20c-13.255 0-24 10.745-24 24v8c0 13.255 10.745 24 24 24s24-10.745 24-24v-8c0-13.255-10.745-24-24-24Z" fill="#F6BD60"/>
  <path d="M38 43c2.761 0 5-2.239 5-5s-2.239-5-5-5-5 2.239-5 5 2.239 5 5 5Zm20 0c2.761 0 5-2.239 5-5s-2.239-5-5-5-5 2.239-5 5 2.239 5 5 5Z" fill="#143642"/>
  <path d="M34 55c4.001 5.333 8.667 8 14 8s9.999-2.667 14-8" stroke="#143642" stroke-linecap="round" stroke-width="6"/>
</svg>
